<svg id="Capa_1" data-name="Capa 1" xmlns="http://www.w3.org/2000/svg" viewBox="0 0 383.28 554.71"><defs><style>.cls-1,.cls-2{fill:#fff;}.cls-2{stroke:#fff;stroke-linecap:round;stroke-linejoin:round;stroke-width:1.34px;}</style></defs><path class="cls-1" d="M298,587.13a16.39,16.39,0,0,1-13.14-6.52L137.39,386.45a16.56,16.56,0,0,1,0-20l171.17-226.8a16.38,16.38,0,0,1,13.16-6.54h0a16.36,16.36,0,0,1,13.06,6.41L415,238.94a15.58,15.58,0,0,1-2.33,21.91h0L322.45,149.09a.86.86,0,0,0-.73-.36.84.84,0,0,0-.73.36L149.81,375.9a.93.93,0,0,0,0,1.13L297.27,571.18a.92.92,0,0,0,1.46,0L446.2,377a.93.93,0,0,0,0-1.12L320.7,210.77h0a15.6,15.6,0,0,1,21.84,3L458.61,366.49a16.56,16.56,0,0,1,0,20L311.14,580.61A16.38,16.38,0,0,1,298,587.13Z" transform="translate(-106.83 -133.15)"/><path class="cls-2" d="M407.56,368.1,310.08,239.76a15.16,15.16,0,0,0-24.16,0L188.44,368.1a15.17,15.17,0,0,0,0,18.35L285.92,514.8a13.78,13.78,0,0,0,1,1.15c0-9.56,0-19.13.1-28.7a9.82,9.82,0,0,0-3.32-7.81c-8.38-8.14-16.6-16.45-24.84-24.74-3.39-3.41-4.6-7.48-2.88-12.11a10.66,10.66,0,0,1,8.92-7.17c4-.62,7.34.95,10.15,3.78,3.64,3.66,7.32,7.3,11.9,11.86,0-4.72-.34-8.51.08-12.22.49-4.31-1.59-6.93-4.41-9.7-12.58-12.38-25-24.92-37.47-37.4-3.15-3.15-4.72-6.83-3.48-11.3a10.88,10.88,0,0,1,8.57-8.14c4.37-1,7.84.77,10.85,3.79q11.56,11.55,23.14,23.09c.61.61,1.3,1.12,2.52,2.15.08-1.86.19-3.09.19-4.31,0-14.15,0-28.31,0-42.46,0-7.64,4.55-12.71,11.18-12.61s10.92,5.06,10.93,12.49q0,21.22,0,42.46c0,1.24.11,2.47.21,4.63,2.87-2.79,5.15-5,7.39-7.18,6-6,11.91-12,17.89-17.89,5.54-5.5,12.09-5.93,16.86-1.15s4.41,11.48-1,16.89C337.5,405.15,324.5,418,311.7,431.09a10.5,10.5,0,0,0-2.51,6c-.39,4.22-.12,8.49-.12,14,4.29-4.29,7.68-7.89,11.31-11.23a18.76,18.76,0,0,1,6-4A11,11,0,0,1,337.75,454c-5.54,5.84-10.82,12.08-17.1,17-9.44,7.42-13.17,16.24-11.77,28.2a152.07,152.07,0,0,1,.45,16.52c.26-.3.51-.59.75-.91l97.48-128.35A15.17,15.17,0,0,0,407.56,368.1Z" transform="translate(-106.83 -133.15)"/><path class="cls-1" d="M106.83,687.1V618.91h13.53A14.08,14.08,0,0,1,134.44,633a12.73,12.73,0,0,1-3.23,8.29,20.42,20.42,0,0,1,6,4.69,23.36,23.36,0,0,1,6.95,17,24.08,24.08,0,0,1-7,17.2,21.77,21.77,0,0,1-13.57,6.8v.13l-2.21,0Zm15-8a14.71,14.71,0,0,0,9.49-4.74A15.71,15.71,0,0,0,136,662.93,15.89,15.89,0,0,0,120.08,647h-5.25v32.05Zm-.62-40.29a6.23,6.23,0,0,0,3.71-1.64,5.39,5.39,0,0,0,1.72-4.2,5.7,5.7,0,0,0-1.75-4.33,6.21,6.21,0,0,0-4.49-1.71h-5.53V638.8Z" transform="translate(-106.83 -133.15)"/><path class="cls-1" d="M120.36,618.91H106.83V687.1h14.56l2.21,0v-.13a21.77,21.77,0,0,0,13.57-6.8,24.08,24.08,0,0,0,7-17.2,23.36,23.36,0,0,0-6.95-17,20.42,20.42,0,0,0-6-4.69,12.73,12.73,0,0,0,3.23-8.29,14.08,14.08,0,0,0-14.08-14.05Zm-5.53,19.89V626.92h5.53a6.21,6.21,0,0,1,4.49,1.71A5.7,5.7,0,0,1,126.6,633a5.39,5.39,0,0,1-1.72,4.2,6.23,6.23,0,0,1-3.71,1.64Zm0,40.29V647h5.25A15.89,15.89,0,0,1,136,662.93a15.71,15.71,0,0,1-4.68,11.42,14.71,14.71,0,0,1-9.49,4.74Z" transform="translate(-106.83 -133.15)"/><path class="cls-1" d="M210,687.86a34.94,34.94,0,1,1,24.7-10.24A33.81,33.81,0,0,1,210,687.86Zm0-61.78a26.84,26.84,0,1,0,19,7.86A25.65,25.65,0,0,0,210,626.08Zm8.31-12.6a5.75,5.75,0,0,1-4.08-1.67,5.66,5.66,0,0,1-1.71-4.13,5.57,5.57,0,0,1,1.72-4.08,5.81,5.81,0,0,1,8.15,0,5.76,5.76,0,0,1,0,8.21A5.71,5.71,0,0,1,218.32,613.48Zm-17.41,0a5.75,5.75,0,0,1-4.08-1.67,5.66,5.66,0,0,1-1.71-4.13,5.57,5.57,0,0,1,1.72-4.08,5.81,5.81,0,0,1,8.15,0,5.57,5.57,0,0,1,1.72,4.08,5.79,5.79,0,0,1-5.8,5.8Z" transform="translate(-106.83 -133.15)"/><path class="cls-1" d="M218.32,601.93a5.67,5.67,0,0,0-4.07,1.67,5.57,5.57,0,0,0-1.72,4.08,5.66,5.66,0,0,0,1.71,4.13,5.82,5.82,0,0,0,8.16,0,5.78,5.78,0,0,0-4.08-9.88Zm-17.41,0a5.67,5.67,0,0,0-4.07,1.67,5.57,5.57,0,0,0-1.72,4.08,5.66,5.66,0,0,0,1.71,4.13,5.82,5.82,0,0,0,8.16,0,5.67,5.67,0,0,0,1.72-4.13A5.57,5.57,0,0,0,205,603.6a5.67,5.67,0,0,0-4.08-1.67ZM210,618a34.93,34.93,0,1,0,24.7,10.23A33.8,33.8,0,0,0,210,618Zm0,61.81a26.87,26.87,0,1,1,19-7.88,25.61,25.61,0,0,1-19,7.88Z" transform="translate(-106.83 -133.15)"/><path class="cls-1" d="M302.42,687.1,288.21,665h-8.52V687.1h-8V618.91h19.1l.15,0a23.35,23.35,0,0,1,13.66,6.73,23,23,0,0,1,0,32.57,22.91,22.91,0,0,1-7.82,5.21l15.34,23.66Zm-14.1-30.17a15,15,0,0,0,0-30h-8.63v30Z" transform="translate(-106.83 -133.15)"/><path class="cls-1" d="M290.78,618.91h-19.1V687.1h8V665h8.52l14.21,22.12h9.69l-15.34-23.66a22.91,22.91,0,0,0,7.82-5.21,23,23,0,0,0,0-32.57,23.35,23.35,0,0,0-13.66-6.73l-.15,0Zm-11.09,38V627h8.63a15,15,0,0,1,0,30Z" transform="translate(-106.83 -133.15)"/><polygon class="cls-1" points="252.09 553.95 252.09 485.77 288.4 485.77 288.4 493.77 260.1 493.77 260.1 515.86 288.4 515.86 288.4 523.86 260.1 523.86 260.1 545.95 288.4 545.95 288.4 553.95 252.09 553.95"/><polygon class="cls-1" points="288.4 485.77 252.09 485.77 252.09 553.95 288.4 553.95 288.4 545.95 260.1 545.95 260.1 523.86 288.4 523.86 288.4 515.86 260.1 515.86 260.1 493.77 288.4 493.77 288.4 485.77 288.4 485.77"/><path class="cls-1" d="M481.63,687.1l-8.89-24.43h-19l-8.88,24.43h-8.53l26.91-73.91,26.86,73.91Zm-11.81-32.44-6.57-18.07-6.57,18.07Z" transform="translate(-106.83 -133.15)"/><path class="cls-1" d="M463.25,613.19,436.34,687.1h8.53l8.88-24.43h19l8.89,24.43h8.48l-26.86-73.91Zm-6.57,41.47,6.57-18.07,6.57,18.07Z" transform="translate(-106.83 -133.15)"/></svg>