<svg id="Capa_1" data-name="Capa 1" xmlns="http://www.w3.org/2000/svg" viewBox="0 0 560.87 358.21"><defs><style>.cls-1{fill:#1171b7;}.cls-2{fill:#fdfdfe;}</style></defs><path class="cls-1" d="M577.9,346.91c-2.26,4.62-2.4,9.82-3.95,14.66-12.73,39.76-50,65.26-92.55,63.25-38.5-1.81-73.73-32.57-82.38-72-10-45.56,18-99.52,72.51-109.18,1.79-.32,4,.23,5.41-1.67h20c.33,1,1.22.88,2,1,38.35,5.07,68.46,32.64,76.67,70.14.71,3.29.5,6.79,2.28,9.83ZM430.8,334c0,33.34,24.43,58.26,57.14,58.29,31.35,0,56.78-25.94,56.81-58,0-33.67-24.86-59.5-57.37-59.53C454.7,274.75,430.8,299.78,430.8,334Z" transform="translate(-17.1 -241.89)"/><path class="cls-1" d="M17.1,249A6.9,6.9,0,0,1,23,246.34q12.45.21,24.89,0c4.15-.08,6.06,1.41,6.06,5.79q-.1,81.3,0,162.6c0,4.28-1.8,6-6,5.91-8-.17-15.95-.27-23.93-.13-2.81,0-5.15-.37-6.94-2.64Z" transform="translate(-17.1 -241.89)"/><path class="cls-2" d="M577.9,322.92c-1.78-3-1.57-6.54-2.28-9.83C567.41,275.59,537.3,248,499,243c-.8-.11-1.69,0-2-1,26,0,52,0,78-.07,2.5,0,3.08.56,3.07,3.06C577.86,270.94,577.9,296.93,577.9,322.92Z" transform="translate(-17.1 -241.89)"/><path class="cls-1" d="M107.07,309.23c-1.53,1.5-.8,3.44-.8,5.16q-.08,49.46,0,98.9c0,6.72-.75,7.32-7.43,7.2q-10.45-.21-20.93,0c-6.92.13-7.63-.45-7.64-7.52V267.6c0-5.5.11-11,0-16.49-.09-3.4,1.26-4.81,4.7-4.76,8.5.12,17,.14,25.48,0,3.45-.06,5.5,1.61,7.34,4.24q36.12,51.76,72.34,103.48c.93,1.33,1.92,2.61,3,4,1.94-1.74,1.12-3.68,1.12-5.34q.09-49.46,0-98.9c0-6.9.81-7.58,7.78-7.49,7.15.1,14.29.1,21.43-.05,5.92-.12,7.17.79,7.15,6.67-.05,16-.33,32-.35,47.93-.06,36.46-.13,72.93,0,109.39.05,11,1,10.1-10.16,10.14-6.16,0-12.32-.15-18.48.05-4.06.14-6.78-1.29-9.15-4.69q-36.21-52-72.67-103.87C109.08,310.9,108.8,309.37,107.07,309.23Z" transform="translate(-17.1 -241.89)"/><path class="cls-1" d="M351.15,358.13c1.85-3.21,1-5.89,1-8.45q.06-48,0-95.94c0-6.63.78-7.53,7.55-7.3a216.69,216.69,0,0,0,22.94-.18c3.62-.26,5.78,1.25,5.74,5.09,0,3.48-.22,7-.23,10.45q0,66.46,0,132.92c0,7.15.14,14.31.43,21.46.13,3.35-1.5,4.53-4.44,4.51-8.83-.06-17.65-.17-26.47-.27-4.1,0-6-3-8-5.93q-36.25-51.71-72.54-103.4c-.46-.65-.95-1.28-1.59-2.15-2.14,1.74-1.28,3.88-1.28,5.65q-.09,49.21-.05,98.44c0,7.23-.41,7.54-7.63,7.44s-14.66-.17-22,.08c-4.38.15-6.44-1.23-6.43-5.9q.1-82,0-163.9c0-3,.68-4.07,3.85-4,8.15.1,16.31,0,24.45-.4,4.5-.22,7.31,1.34,9.9,5.08q35.43,51.08,71.19,101.9C348.55,354.77,349.69,356.19,351.15,358.13Z" transform="translate(-17.1 -241.89)"/><path class="cls-1" d="M356,511.77c0-27,.09-54-.1-80.95,0-4.46,1.37-5.59,5.69-5.61,19-.07,38-.48,56.91.71,13.73.87,27,3.37,38.64,11.62,25.16,17.8,27.06,65.27-9.28,80.46-10.18,4.25-10.06,4.47-4.15,14.07q19.06,31,38.05,62.13c.81,1.32,2.55,2.68,1.46,4.38s-3,1.09-4.64,1c-8.8-.51-17.61-1.31-26.38.27-6.82,1.23-10.85-2.19-14.16-7.71-12.31-20.54-24.82-41-37.26-61.44-.6-1-1.22-2-1.83-3-.74-1.18-1.64-2.3-3.19-1.77s-1.4,1.84-1.38,3.29c.14,10.49.15,21,.17,31.47s0,21,0,31.48c0,6.84-.79,7.68-7.38,7.42-8.15-.31-16.3-.34-24.45,0-5.92.25-6.71-.59-6.71-6.38Q356,552.49,356,511.77Zm38.56-36.17q0,7,0,14c0,1.8.21,3.43,2.58,3.39,9.95-.17,20,1,29.72-2.14,8.11-2.6,11.79-8.1,11.14-16.62-.62-8.17-6.24-13.56-15.83-15.3-7.91-1.45-15.91-1.11-23.88-1.23-2.89-.05-3.8,1.28-3.75,3.94C394.6,466.28,394.53,470.94,394.54,475.6Z" transform="translate(-17.1 -241.89)"/><path class="cls-1" d="M326.63,599.64c-4.16,0-8.32-.12-12.47,0-3.66.13-5.87-1.32-7.19-4.8-3.3-8.69-6.92-17.26-10.19-26-1.42-3.77-3.53-5.38-7.76-5.34q-32,.28-64,0c-4.28,0-6.26,1.71-7.73,5.39-3.38,8.48-7.14,16.81-10.54,25.28-1.69,4.19-4.35,5.59-8.88,5.39-8.29-.37-16.61-.12-24.92,0-5.27.08-6.11-.92-4-5.72,23.67-53.31,44.55-107.76,67-161.58,2.72-6.53,3.81-7.48,10.82-7a170.7,170.7,0,0,0,21.93-.08c4.25-.23,6.67,1.58,8.29,5.57q33,81.28,66.15,162.49c2.34,5.75,1.82,6.4-4.57,6.3C334.62,599.59,330.63,599.64,326.63,599.64Zm-69.08-125.9c-1.48,0-1.5.81-1.72,1.35-7.3,17.47-14.52,35-21.9,52.41-1.43,3.37.1,3.51,2.74,3.51q19.47,0,39,.14c5.13.05,5.53-.41,3.5-5.35q-7.41-18-14.86-35.91C262,484.44,259.73,479,257.55,473.74Z" transform="translate(-17.1 -241.89)"/><path class="cls-1" d="M133,547.67c5.22-13.16,10-25.13,14.72-37.12,10.41-26.43,20.87-52.85,31.13-79.34,1.62-4.19,4-6.28,8.5-5.92,8.31.67,16.62.33,24.94.07,5.57-.18,6.09.77,4,6.19-7.47,19-15,38-22.49,57q-20.4,52-40.74,104c-2.46,6.28-4.15,7.47-10.83,7.09a153.36,153.36,0,0,0-20.45,0c-4.6.36-7.22-1.3-9-5.88Q81.7,512.8,50.27,432c-2.32-6-1.6-7.06,4.87-6.63a163.76,163.76,0,0,0,21.93,0c7.33-.49,8.45.35,11.11,7.2q21.06,54.39,42.14,108.76C131,543,131.74,544.66,133,547.67Z" transform="translate(-17.1 -241.89)"/></svg>